<svg width="25" height="24" viewBox="0 0 25 24" fill="none" xmlns="http://www.w3.org/2000/svg">
<path d="M1.94995 2.10001C1.94995 1.86132 2.04477 1.6324 2.21356 1.46362C2.38234 1.29483 2.61126 1.20001 2.84995 1.20001H4.80355C5.31073 1.19986 5.80082 1.38325 6.1833 1.71632C6.56578 2.04939 6.8148 2.50963 6.88435 3.01201L6.96595 3.60001C12.354 3.61213 17.7264 4.17993 22.998 5.29441C23.2283 5.34356 23.4302 5.48104 23.5603 5.67734C23.6904 5.87365 23.7384 6.11313 23.694 6.34441C23.2098 8.86412 22.5612 11.3494 21.7524 13.7844C21.6926 13.9637 21.5779 14.1197 21.4246 14.2302C21.2712 14.3407 21.087 14.4001 20.898 14.4H7.94995C7.81315 14.4 7.67875 14.4088 7.54675 14.4264C7.03613 14.4956 6.55193 14.6951 6.14082 15.0057C5.72971 15.3164 5.40554 15.7277 5.19955 16.2H21.45C21.6886 16.2 21.9176 16.2948 22.0863 16.4636C22.2551 16.6324 22.35 16.8613 22.35 17.1C22.35 17.3387 22.2551 17.5676 22.0863 17.7364C21.9176 17.9052 21.6886 18 21.45 18H4.06195C3.93798 18 3.81534 17.9745 3.70172 17.9249C3.5881 17.8753 3.48595 17.8027 3.40168 17.7118C3.31741 17.6209 3.25283 17.5136 3.21199 17.3965C3.17115 17.2794 3.15493 17.1552 3.16435 17.0316C3.23656 16.0913 3.58419 15.193 4.16383 14.4491C4.74346 13.7051 5.52942 13.1484 6.42355 12.8484L5.10115 3.25921C5.09128 3.18732 5.05569 3.12145 5.00097 3.07379C4.94625 3.02613 4.87612 2.99992 4.80355 3.00001H2.84995C2.61126 3.00001 2.38234 2.90519 2.21356 2.73641C2.04477 2.56763 1.94995 2.33871 1.94995 2.10001ZM7.94995 21C7.94995 21.4774 7.76031 21.9352 7.42274 22.2728C7.08518 22.6104 6.62734 22.8 6.14995 22.8C5.67256 22.8 5.21472 22.6104 4.87716 22.2728C4.53959 21.9352 4.34995 21.4774 4.34995 21C4.34995 20.5226 4.53959 20.0648 4.87716 19.7272C5.21472 19.3897 5.67256 19.2 6.14995 19.2C6.62734 19.2 7.08518 19.3897 7.42274 19.7272C7.76031 20.0648 7.94995 20.5226 7.94995 21ZM19.35 22.8C19.8273 22.8 20.2852 22.6104 20.6227 22.2728C20.9603 21.9352 21.15 21.4774 21.15 21C21.15 20.5226 20.9603 20.0648 20.6227 19.7272C20.2852 19.3897 19.8273 19.2 19.35 19.2C18.8726 19.2 18.4147 19.3897 18.0772 19.7272C17.7396 20.0648 17.55 20.5226 17.55 21C17.55 21.4774 17.7396 21.9352 18.0772 22.2728C18.4147 22.6104 18.8726 22.8 19.35 22.8Z" fill="#C0BABA"/>
</svg>
