<svg width="20" height="20" viewBox="0 0 20 20" fill="none" xmlns="http://www.w3.org/2000/svg">
<path fill-rule="evenodd" clip-rule="evenodd" d="M4.99999 3.33331C3.15904 3.33331 1.66666 4.8257 1.66666 6.66665V13.3333C1.66666 15.1743 3.15904 16.6666 4.99999 16.6666H15C16.8409 16.6666 18.3333 15.1743 18.3333 13.3333V6.66665C18.3333 4.8257 16.8409 3.33331 15 3.33331H4.99999ZM4.56829 5.05643C4.70598 5.01961 4.85069 4.99998 4.99999 4.99998H15C15.1493 4.99998 15.294 5.01961 15.4317 5.05643L11.1785 9.30962C10.5276 9.9605 9.47235 9.9605 8.82148 9.30963L4.56829 5.05643ZM3.38978 6.23494C3.35295 6.37263 3.33332 6.51735 3.33332 6.66665V13.3333C3.33332 14.2538 4.07952 15 4.99999 15H15C15.9205 15 16.6667 14.2538 16.6667 13.3333V6.66665C16.6667 6.51735 16.647 6.37263 16.6102 6.23494L12.357 10.4881C11.0553 11.7899 8.94472 11.7899 7.64297 10.4881L3.38978 6.23494Z" fill="#4B5563"/>
</svg>
