<svg width="25" height="24" viewBox="0 0 25 24" fill="none" xmlns="http://www.w3.org/2000/svg">
<path fill-rule="evenodd" clip-rule="evenodd" d="M5.31234 1.99982C4.56642 1.99982 3.85104 2.29614 3.32359 2.82359C2.79614 3.35104 2.49982 4.06642 2.49982 4.81234V7.93737C2.49982 8.6833 2.79614 9.39868 3.32359 9.92613C3.85104 10.4536 4.56642 10.7499 5.31234 10.7499H8.43737C9.1833 10.7499 9.89868 10.4536 10.4261 9.92613C10.9536 9.39868 11.2499 8.6833 11.2499 7.93737V4.81234C11.2499 4.06642 10.9536 3.35104 10.4261 2.82359C9.89868 2.29614 9.1833 1.99982 8.43737 1.99982H5.31234ZM5.31234 13.2499C4.56642 13.2499 3.85104 13.5462 3.32359 14.0737C2.79614 14.6011 2.49982 15.3165 2.49982 16.0625V19.1875C2.49982 19.9334 2.79614 20.6488 3.32359 21.1762C3.85104 21.7037 4.56642 22 5.31234 22H8.43737C9.1833 22 9.89868 21.7037 10.4261 21.1762C10.9536 20.6488 11.2499 19.9334 11.2499 19.1875V16.0625C11.2499 15.3165 10.9536 14.6011 10.4261 14.0737C9.89868 13.5462 9.1833 13.2499 8.43737 13.2499H5.31234ZM16.5625 1.99982C15.8165 1.99982 15.1011 2.29614 14.5737 2.82359C14.0462 3.35104 13.7499 4.06642 13.7499 4.81234V7.93737C13.7499 8.6833 14.0462 9.39868 14.5737 9.92613C15.1011 10.4536 15.8165 10.7499 16.5625 10.7499H19.6875C20.4334 10.7499 21.1488 10.4536 21.6762 9.92613C22.2037 9.39868 22.5 8.6833 22.5 7.93737V4.81234C22.5 4.06642 22.2037 3.35104 21.6762 2.82359C21.1488 2.29614 20.4334 1.99982 19.6875 1.99982H16.5625ZM16.5625 13.2499C15.8165 13.2499 15.1011 13.5462 14.5737 14.0737C14.0462 14.6011 13.7499 15.3165 13.7499 16.0625V19.1875C13.7499 19.9334 14.0462 20.6488 14.5737 21.1762C15.1011 21.7037 15.8165 22 16.5625 22H19.6875C20.4334 22 21.1488 21.7037 21.6762 21.1762C22.2037 20.6488 22.5 19.9334 22.5 19.1875V16.0625C22.5 15.3165 22.2037 14.6011 21.6762 14.0737C21.1488 13.5462 20.4334 13.2499 19.6875 13.2499H16.5625Z" fill="#C0BABA"/>
</svg>
