<svg width="20" height="20" viewBox="0 0 20 20" fill="none" xmlns="http://www.w3.org/2000/svg">
<path fill-rule="evenodd" clip-rule="evenodd" d="M3.25004 7C3.25004 5.20979 3.9612 3.4929 5.22707 2.22703C6.49294 0.961159 8.20983 0.25 10 0.25C11.7902 0.25 13.5071 0.961159 14.773 2.22703C16.0389 3.4929 16.75 5.20979 16.75 7V7.75C16.75 9.873 17.55 11.807 18.868 13.27C18.9501 13.361 19.0087 13.4707 19.0386 13.5896C19.0685 13.7084 19.0688 13.8328 19.0395 13.9518C19.0102 14.0708 18.9521 14.1808 18.8705 14.2722C18.7888 14.3636 18.686 14.4335 18.571 14.476C17.027 15.046 15.411 15.466 13.74 15.719C13.7467 15.8123 13.75 15.906 13.75 16C13.7492 16.5037 13.6468 17.0021 13.4492 17.4654C13.2515 17.9287 12.9625 18.3474 12.5994 18.6965C12.2363 19.0457 11.8066 19.3181 11.336 19.4976C10.8653 19.677 10.3633 19.7598 9.85995 19.741C9.3566 19.7222 8.86219 19.6021 8.40623 19.3881C7.95028 19.174 7.54213 18.8702 7.20615 18.4949C6.87016 18.1196 6.61322 17.6805 6.45067 17.2038C6.28812 16.727 6.22329 16.2224 6.26004 15.72C4.61171 15.4701 2.99306 15.0533 1.42904 14.476C1.31399 14.4337 1.21108 14.3638 1.12932 14.2724C1.04755 14.1811 0.989416 14.0711 0.960009 13.9521C0.930602 13.8331 0.930815 13.7087 0.960632 13.5898C0.990448 13.4708 1.04896 13.3611 1.13104 13.27C2.4976 11.7565 3.25283 9.78914 3.25004 7.75V7ZM7.75204 15.9L7.75004 16C7.75074 16.2992 7.81113 16.5953 7.92767 16.8709C8.0442 17.1466 8.21454 17.3962 8.42872 17.6051C8.6429 17.8141 8.89661 17.9783 9.175 18.088C9.45339 18.1977 9.75088 18.2508 10.05 18.2441C10.3492 18.2375 10.644 18.1712 10.9173 18.0492C11.1905 17.9273 11.4367 17.752 11.6414 17.5337C11.846 17.3154 12.0051 17.0585 12.1093 16.778C12.2135 16.4975 12.2606 16.199 12.248 15.9C10.7524 16.035 9.24766 16.035 7.75204 15.9Z" fill="#212222" fill-opacity="0.8"/>
</svg>
