<svg width="25" height="24" viewBox="0 0 25 24" fill="none" xmlns="http://www.w3.org/2000/svg">
<path fill-rule="evenodd" clip-rule="evenodd" d="M5.62478 1.9997C5.12749 1.9997 4.65057 2.19724 4.29894 2.54888C3.9473 2.90051 3.74976 3.37744 3.74976 3.87472V20.125C3.74976 20.6222 3.9473 21.0992 4.29894 21.4508C4.65057 21.8024 5.12749 22 5.62478 22H19.375C19.8723 22 20.3492 21.8024 20.7008 21.4508C21.0525 21.0992 21.25 20.6222 21.25 20.125V9.02605C21.2496 8.52893 21.0517 8.05233 20.7 7.70103L15.5499 2.54845C15.3756 2.37422 15.1686 2.23607 14.9408 2.14191C14.713 2.04775 14.4689 1.99942 14.2224 1.9997H5.62478ZM8.43732 12.6249C8.18868 12.6249 7.95022 12.7236 7.7744 12.8994C7.59858 13.0753 7.49981 13.3137 7.49981 13.5624C7.49981 13.811 7.59858 14.0495 7.7744 14.2253C7.95022 14.4011 8.18868 14.4999 8.43732 14.4999H16.5624C16.8111 14.4999 17.0495 14.4011 17.2254 14.2253C17.4012 14.0495 17.5 13.811 17.5 13.5624C17.5 13.3137 17.4012 13.0753 17.2254 12.8994C17.0495 12.7236 16.8111 12.6249 16.5624 12.6249H8.43732ZM8.43732 16.3749C8.18868 16.3749 7.95022 16.4737 7.7744 16.6495C7.59858 16.8253 7.49981 17.0638 7.49981 17.3124C7.49981 17.5611 7.59858 17.7995 7.7744 17.9753C7.95022 18.1512 8.18868 18.2499 8.43732 18.2499H16.5624C16.8111 18.2499 17.0495 18.1512 17.2254 17.9753C17.4012 17.7995 17.5 17.5611 17.5 17.3124C17.5 17.0638 17.4012 16.8253 17.2254 16.6495C17.0495 16.4737 16.8111 16.3749 16.5624 16.3749H8.43732Z" fill="#C0BABA"/>
</svg>
