<svg width="25" height="24" viewBox="0 0 25 24" fill="none" xmlns="http://www.w3.org/2000/svg">
<path fill-rule="evenodd" clip-rule="evenodd" d="M19.6206 19.8249C20.6892 18.8211 21.5404 17.6088 22.1217 16.2628C22.703 14.9169 23.0019 13.4661 23 12C23 6.06269 18.1873 1.25 12.25 1.25C6.3127 1.25 1.50001 6.06269 1.50001 12C1.49812 13.4661 1.79705 14.9169 2.37831 16.2628C2.95958 17.6088 3.81081 18.8211 4.87937 19.8249C6.87187 21.7065 9.50949 22.7532 12.25 22.75C14.9905 22.7532 17.6281 21.7065 19.6206 19.8249ZM5.79449 18.4081C6.56879 17.4399 7.55115 16.6584 8.66868 16.1217C9.78622 15.585 11.0103 15.3068 12.25 15.3077C13.4897 15.3068 14.7138 15.585 15.8313 16.1217C16.9489 16.6584 17.9312 17.4399 18.7055 18.4081C17.8611 19.2613 16.8556 19.9383 15.7474 20.3998C14.6393 20.8612 13.4504 21.0979 12.25 21.0961C11.0496 21.0979 9.86075 20.8612 8.75256 20.3998C7.64436 19.9383 6.63888 19.2613 5.79449 18.4081ZM16.3846 8.6923C16.3846 9.78887 15.949 10.8405 15.1736 11.6159C14.3982 12.3913 13.3466 12.8269 12.25 12.8269C11.1534 12.8269 10.1018 12.3913 9.32639 11.6159C8.551 10.8405 8.11539 9.78887 8.11539 8.6923C8.11539 7.59573 8.551 6.54408 9.32639 5.76869C10.1018 4.9933 11.1534 4.55769 12.25 4.55769C13.3466 4.55769 14.3982 4.9933 15.1736 5.76869C15.949 6.54408 16.3846 7.59573 16.3846 8.6923Z" fill="#C0BABA"/>
</svg>
