<svg width="24" height="24" viewBox="0 0 24 24" fill="none" xmlns="http://www.w3.org/2000/svg">
<path d="M11.1006 15.8994C11.1006 16.1381 11.1954 16.367 11.3642 16.5358C11.533 16.7045 11.7619 16.7994 12.0006 16.7994C12.2393 16.7994 12.4682 16.7045 12.637 16.5358C12.8058 16.367 12.9006 16.1381 12.9006 15.8994V5.56257L16.4466 9.31737C16.6118 9.48502 16.8362 9.58126 17.0716 9.58543C17.3069 9.58961 17.5346 9.50141 17.7057 9.33972C17.8768 9.17804 17.9777 8.95575 17.9869 8.72052C17.996 8.48529 17.9126 8.25584 17.7546 8.08137L12.6546 2.68137C12.5705 2.59239 12.4691 2.52152 12.3566 2.47308C12.2442 2.42464 12.123 2.39966 12.0006 2.39966C11.8781 2.39966 11.757 2.42464 11.6445 2.47308C11.5321 2.52152 11.4307 2.59239 11.3466 2.68137L6.24658 8.08137C6.16249 8.16668 6.09628 8.26792 6.05182 8.37915C6.00737 8.49038 5.98556 8.60937 5.98769 8.72913C5.98982 8.8489 6.01583 8.96704 6.06421 9.07662C6.11258 9.18621 6.18235 9.28503 6.26941 9.3673C6.35648 9.44957 6.45909 9.51364 6.57123 9.55574C6.68338 9.59784 6.8028 9.61713 6.92249 9.61248C7.04219 9.60783 7.15975 9.57933 7.26829 9.52865C7.37683 9.47798 7.47416 9.40615 7.55458 9.31737L11.1006 5.56257V15.8994Z" fill="#212222"/>
<path d="M4.20161 15.2997C4.20161 15.061 4.10679 14.832 3.93801 14.6633C3.76922 14.4945 3.54031 14.3997 3.30161 14.3997C3.06292 14.3997 2.834 14.4945 2.66522 14.6633C2.49643 14.832 2.40161 15.061 2.40161 15.2997V18.2997C2.40161 19.1749 2.74929 20.0142 3.36816 20.6331C3.98703 21.252 4.8264 21.5997 5.70161 21.5997H18.3016C19.1768 21.5997 20.0162 21.252 20.6351 20.6331C21.2539 20.0142 21.6016 19.1749 21.6016 18.2997V15.2997C21.6016 15.061 21.5068 14.832 21.338 14.6633C21.1692 14.4945 20.9403 14.3997 20.7016 14.3997C20.4629 14.3997 20.234 14.4945 20.0652 14.6633C19.8964 14.832 19.8016 15.061 19.8016 15.2997V18.2997C19.8016 19.1277 19.1296 19.7997 18.3016 19.7997H5.70161C4.87361 19.7997 4.20161 19.1277 4.20161 18.2997V15.2997Z" fill="#212222"/>
</svg>
