<svg width="24" height="24" viewBox="0 0 24 24" fill="none" xmlns="http://www.w3.org/2000/svg">
<g clip-path="url(#clip0_871_45914)">
<path d="M0.566625 8.34788C0.199031 9.4995 -4.68667e-05 10.7264 8.276e-09 11.9999C-4.68667e-05 13.2735 0.199078 14.5005 0.566672 15.6521L12 16.1739L23.4333 15.6522C23.8009 14.5005 24 13.2735 24 12C24 10.7264 23.8009 9.4995 23.4333 8.34783L12 7.82611L0.566625 8.34788Z" fill="#F0F0F0"/>
<path d="M23.4332 8.34788L11.9999 7.82616L0.5665 8.34788C0.457563 8.68931 0.363766 9.03745 0.285156 9.39136H23.7144C23.6359 9.03741 23.5421 8.68922 23.4332 8.34788Z" fill="#D80027"/>
<path d="M0.285156 14.6086C0.363672 14.9625 0.457469 15.3106 0.566406 15.6521L0.567531 15.6521L11.9997 16.1738L23.433 15.6521C23.542 15.3107 23.6357 14.9625 23.7143 14.6086H0.285156Z" fill="#D80027"/>
<path d="M11.9997 24C17.3536 24 21.8878 20.4936 23.433 15.6521H0.566406C2.11164 20.4935 6.64595 24 11.9997 24Z" fill="#6DA544"/>
<path d="M11.9997 4.57768e-05C6.64595 9.26518e-05 2.11173 3.50648 0.566406 8.34787L23.433 8.34792C21.8879 3.50644 17.3536 -1.09816e-06 11.9997 4.57768e-05Z" fill="#338AF3"/>
<path d="M5.48376 4.95658C5.48376 3.83265 6.27365 2.89375 7.32848 2.6634C7.16638 2.62797 6.99815 2.6088 6.82537 2.6088C5.52871 2.6088 4.47754 3.65992 4.47754 4.95662C4.47754 6.25333 5.52862 7.30445 6.82537 7.30445C6.99815 7.30445 7.16634 7.28523 7.32848 7.24984C6.2737 7.0194 5.48376 6.0805 5.48376 4.95658Z" fill="#F0F0F0"/>
<path d="M8.71628 6.0238L8.87519 6.51294H9.3895L8.97344 6.81529L9.13234 7.30443L8.71628 7.00213L8.30012 7.30443L8.45908 6.81529L8.04297 6.51294H8.55728L8.71628 6.0238Z" fill="#F0F0F0"/>
<path d="M10.3578 6.0238L10.5167 6.51294H11.0311L10.6149 6.81529L10.7739 7.30443L10.3578 7.00213L9.94168 7.30443L10.1006 6.81529L9.68457 6.51294H10.1988L10.3578 6.0238Z" fill="#F0F0F0"/>
<path d="M11.9995 6.0238L12.1584 6.51294H12.6727L12.2566 6.81529L12.4155 7.30443L11.9995 7.00213L11.5833 7.30443L11.7423 6.81529L11.3262 6.51294H11.8405L11.9995 6.0238Z" fill="#F0F0F0"/>
<path d="M13.6411 6.0238L13.8 6.51294H14.3143L13.8982 6.81529L14.0572 7.30443L13.6411 7.00213L13.2249 7.30443L13.3839 6.81529L12.9678 6.51294H13.4821L13.6411 6.0238Z" fill="#F0F0F0"/>
<path d="M15.2826 6.0238L15.4415 6.51294H15.9559L15.5398 6.81529L15.6987 7.30443L15.2826 7.00213L14.8665 7.30443L15.0254 6.81529L14.6094 6.51294H15.1236L15.2826 6.0238Z" fill="#F0F0F0"/>
<path d="M10.3578 4.31622L10.5167 4.80532H11.0311L10.6149 5.10771L10.7739 5.5968L10.3578 5.2945L9.94168 5.5968L10.1006 5.10771L9.68457 4.80532H10.1988L10.3578 4.31622Z" fill="#F0F0F0"/>
<path d="M11.9995 4.31625L12.1584 4.80535H12.6727L12.2566 5.10774L12.4155 5.59683L11.9995 5.29453L11.5833 5.59683L11.7423 5.10774L11.3262 4.80535H11.8405L11.9995 4.31625Z" fill="#F0F0F0"/>
<path d="M13.6411 4.31625L13.8 4.80535H14.3143L13.8982 5.10774L14.0572 5.59683L13.6411 5.29453L13.2249 5.59683L13.3839 5.10774L12.9678 4.80535H13.4821L13.6411 4.31625Z" fill="#F0F0F0"/>
<path d="M15.2826 4.31625L15.4415 4.80535H15.9559L15.5398 5.10774L15.6987 5.59683L15.2826 5.29453L14.8665 5.59683L15.0254 5.10774L14.6094 4.80535H15.1236L15.2826 4.31625Z" fill="#F0F0F0"/>
<path d="M11.9995 2.60867L12.1584 3.09786H12.6727L12.2566 3.40016L12.4155 3.88934L11.9995 3.58705L11.5833 3.88934L11.7423 3.40016L11.3262 3.09786H11.8405L11.9995 2.60867Z" fill="#F0F0F0"/>
<path d="M13.6411 2.6087L13.8 3.09789H14.3143L13.8982 3.40019L14.0572 3.88938L13.6411 3.58708L13.2249 3.88938L13.3839 3.40019L12.9678 3.09789H13.4821L13.6411 2.6087Z" fill="#F0F0F0"/>
<path d="M15.2826 2.60867L15.4415 3.09786H15.9559L15.5398 3.40016L15.6987 3.88934L15.2826 3.58705L14.8665 3.88934L15.0254 3.40016L14.6094 3.09786H15.1236L15.2826 2.60867Z" fill="#F0F0F0"/>
</g>
<defs>
<clipPath id="clip0_871_45914">
<rect width="24" height="24" fill="white"/>
</clipPath>
</defs>
</svg>
