<svg width="12" height="11" viewBox="0 0 12 11" fill="none" xmlns="http://www.w3.org/2000/svg">
<path d="M2.28 0.219968C2.13783 0.0874883 1.94978 0.0153654 1.75548 0.0187936C1.56118 0.0222218 1.37579 0.100934 1.23838 0.238347C1.10097 0.37576 1.02225 0.561145 1.01883 0.755446C1.0154 0.949747 1.08752 1.13779 1.22 1.27997L4.94 4.99997L1.22 8.71997C1.14631 8.78863 1.08721 8.87143 1.04622 8.96343C1.00523 9.05543 0.983186 9.15474 0.981409 9.25545C0.979633 9.35615 0.998157 9.45618 1.03588 9.54957C1.0736 9.64295 1.12974 9.72779 1.20096 9.79901C1.27218 9.87022 1.35701 9.92637 1.4504 9.96409C1.54379 10.0018 1.64382 10.0203 1.74452 10.0186C1.84523 10.0168 1.94454 9.99474 2.03654 9.95375C2.12854 9.91276 2.21134 9.85365 2.28 9.77997L6 6.05997L9.72 9.77997C9.78866 9.85365 9.87146 9.91276 9.96346 9.95375C10.0555 9.99474 10.1548 10.0168 10.2555 10.0186C10.3562 10.0203 10.4562 10.0018 10.5496 9.96409C10.643 9.92637 10.7278 9.87022 10.799 9.79901C10.8703 9.72779 10.9264 9.64295 10.9641 9.54957C11.0018 9.45618 11.0204 9.35615 11.0186 9.25545C11.0168 9.15474 10.9948 9.05543 10.9538 8.96343C10.9128 8.87143 10.8537 8.78863 10.78 8.71997L7.06 4.99997L10.78 1.27997C10.9125 1.13779 10.9846 0.949747 10.9812 0.755446C10.9777 0.561145 10.899 0.37576 10.7616 0.238347C10.6242 0.100934 10.4388 0.0222218 10.2445 0.0187936C10.0502 0.0153654 9.86218 0.0874883 9.72 0.219968L6 3.93997L2.28 0.219968Z" fill="#212222"/>
</svg>
